<?xml version="1.0" standalone="no"?>
<!DOCTYPE svg PUBLIC "-//W3C//DTD SVG 20010904//EN"
 "http://www.w3.org/TR/2001/REC-SVG-20010904/DTD/svg10.dtd">
<svg version="1.0" xmlns="http://www.w3.org/2000/svg"
 width="500.000000pt" height="418.000000pt" viewBox="0 0 500.000000 418.000000"
 preserveAspectRatio="xMidYMid meet">
<metadata>
Created by potrace 1.14, written by Peter Selinger 2001-2017
</metadata>
<g transform="translate(0.000000,418.000000) scale(0.100000,-0.100000)"
fill="#000000" stroke="none">
<path d="M2655 4170 c-167 -12 -326 -46 -499 -106 -38 -13 -72 -24 -75 -24 -3
0 13 18 34 40 38 39 38 40 15 40 -47 0 -202 -31 -281 -56 -93 -29 -246 -92
-342 -140 -38 -20 -71 -33 -74 -31 -2 3 13 19 34 37 l38 32 -66 -5 c-104 -9
-167 -45 -279 -158 l-95 -96 -95 -23 c-261 -62 -495 -174 -661 -314 -178 -151
-299 -409 -299 -638 0 -100 20 -177 72 -283 20 -39 75 -105 89 -105 3 0 6 69
5 152 -1 142 1 157 23 206 18 39 28 52 40 48 9 -2 36 -12 60 -21 92 -34 243
-47 508 -43 l251 3 164 -110 c333 -225 465 -338 559 -483 46 -70 89 -179 89
-224 0 -34 -57 -140 -125 -230 -36 -47 -161 -185 -277 -305 -353 -364 -504
-580 -595 -851 -41 -123 -54 -255 -33 -332 l13 -45 17 63 c41 147 150 315 288
442 71 65 78 69 90 53 27 -36 -17 -223 -83 -353 -14 -27 -23 -50 -20 -50 4 0
36 24 73 53 143 115 311 314 482 572 71 108 117 165 131 165 10 0 -61 -218
-105 -325 -21 -49 -60 -133 -87 -186 -27 -52 -49 -99 -49 -103 0 -15 136 66
229 137 52 39 142 114 199 167 58 52 128 116 157 142 l51 46 -82 -251 c-45
-139 -89 -271 -97 -295 -20 -57 -8 -55 89 14 130 93 324 269 427 389 72 83 72
72 -8 -113 -30 -69 -53 -127 -52 -129 9 -9 107 67 215 166 67 62 122 109 122
106 0 -14 -166 -255 -290 -421 -28 -37 -48 -69 -45 -72 8 -8 211 119 319 199
126 96 265 226 341 321 78 97 79 97 70 68 -11 -36 -211 -591 -229 -634 -8 -20
-13 -36 -10 -36 4 0 321 260 709 579 43 36 76 62 73 56 -3 -5 -45 -80 -93
-165 -148 -262 -337 -593 -358 -629 -19 -32 -15 -30 84 36 57 38 167 110 244
159 279 177 450 302 558 408 32 32 60 56 62 54 7 -6 -68 -195 -155 -391 -99
-221 -100 -213 22 -150 100 52 218 162 296 275 65 95 143 276 183 428 l12 45
18 -75 c22 -91 59 -336 96 -639 30 -251 29 -250 84 -107 142 367 147 847 13
1297 -19 64 -34 119 -34 123 0 6 33 -28 153 -159 l37 -40 -6 75 c-9 122 -42
305 -69 386 -30 89 -79 189 -144 293 -80 127 -79 130 10 51 131 -117 123 -113
115 -57 -17 114 -82 258 -217 480 l-80 132 112 -110 c61 -60 109 -101 106 -90
-3 11 -13 49 -22 85 -22 91 -103 249 -179 351 -76 100 -220 240 -334 324 -44
33 -80 60 -79 61 1 1 43 -9 92 -22 50 -13 94 -23 99 -21 12 4 -83 107 -181
198 -128 120 -309 240 -447 298 -146 61 -140 55 -66 61 l65 5 -90 43 c-272
132 -537 209 -738 214 -88 2 -110 10 -59 22 15 3 50 12 77 20 l50 14 -55 5
c-105 11 -206 13 -305 7z m25 -74 c0 -2 -16 -13 -35 -25 -67 -39 -48 -46 107
-43 285 7 531 -36 707 -122 l65 -31 -48 -10 -48 -10 118 -55 c284 -131 500
-259 602 -356 l57 -54 -90 5 c-49 3 -107 8 -127 10 -21 3 -38 2 -38 -2 1 -5
48 -41 107 -82 275 -193 478 -376 572 -516 28 -42 51 -81 51 -86 0 -5 -28 12
-62 39 -98 75 -148 105 -148 88 0 -14 52 -118 188 -377 40 -75 72 -139 72
-143 0 -13 -77 33 -160 97 -47 36 -87 64 -89 62 -2 -2 29 -66 70 -142 248
-472 294 -569 328 -693 12 -41 21 -76 21 -78 0 -2 -56 40 -125 93 -69 53 -125
92 -125 88 0 -5 5 -24 10 -43 30 -101 92 -352 119 -480 75 -360 96 -582 69
-729 l-12 -66 -7 40 c-4 22 -15 90 -24 150 -22 145 -54 273 -122 477 -52 159
-73 205 -73 159 0 -26 -33 -169 -66 -291 -60 -215 -144 -395 -226 -486 -55
-60 -77 -70 -53 -25 35 68 104 291 145 466 11 50 27 118 35 152 20 84 19 86
-15 24 -110 -199 -367 -439 -741 -691 -73 -49 -135 -88 -136 -86 -2 2 14 30
35 62 61 91 147 251 243 449 79 163 135 295 125 295 -2 0 -172 -135 -377 -300
-205 -164 -374 -298 -376 -296 -1 1 58 184 132 406 73 223 133 405 132 407 -1
1 -43 -49 -92 -110 -206 -255 -556 -639 -571 -625 -2 3 35 72 82 154 108 186
190 344 196 378 4 21 -17 5 -111 -83 -64 -60 -152 -146 -196 -190 -80 -81
-101 -96 -91 -63 5 16 28 174 40 275 l6 48 -52 -68 c-122 -162 -470 -533 -499
-533 -8 0 -8 4 -1 13 18 21 79 210 136 415 82 298 89 286 -72 115 -182 -193
-359 -355 -428 -391 l-22 -12 20 53 c41 104 185 643 175 653 -2 2 -53 -59
-115 -135 -124 -153 -262 -303 -324 -353 -51 -40 -51 -41 85 177 195 311 291
479 318 553 9 27 9 27 -13 -3 -50 -67 -165 -189 -332 -355 -140 -138 -179
-172 -186 -160 -5 8 -10 18 -10 21 0 13 176 247 273 363 114 136 198 260 232
344 19 45 25 52 26 32 5 -54 -2 -95 -22 -129 -18 -30 -18 -33 -2 -20 60 48
101 131 110 226 l7 68 18 -60 c21 -67 25 -145 9 -190 l-11 -30 20 23 c24 29
50 113 50 161 0 20 -11 66 -24 104 l-23 67 29 -32 c16 -18 41 -57 55 -87 23
-49 25 -61 20 -140 -3 -57 -15 -115 -35 -174 -35 -102 -20 -100 32 4 68 135
75 279 19 388 -37 72 -27 70 63 -11 37 -35 67 -74 86 -113 l29 -60 -4 57 c-5
81 -53 174 -123 236 l-55 49 48 -8 c26 -4 77 -16 111 -27 l64 -20 -19 20 c-27
30 -95 61 -223 103 -238 77 -430 153 -430 171 0 2 8 0 18 -5 23 -12 214 -61
239 -61 10 0 -26 20 -79 44 -153 69 -349 188 -334 203 3 3 11 1 18 -4 30 -24
309 -133 341 -133 6 0 -8 13 -31 29 -22 16 -42 33 -45 38 -3 5 41 7 98 5 91
-4 110 -1 148 17 36 18 65 22 153 23 72 2 118 -2 134 -11 21 -10 20 -8 -8 18
-28 27 -40 31 -87 31 -59 0 -109 15 -100 29 10 18 -53 78 -87 84 -77 12 -153
50 -203 101 -88 89 -182 279 -154 313 18 21 25 16 58 -37 37 -60 178 -210 197
-210 26 0 14 28 -27 67 -68 64 -106 123 -115 178 l-7 50 40 -35 c23 -20 45
-51 52 -73 31 -97 152 -161 261 -139 66 14 126 54 151 102 21 38 25 119 8 153
-7 16 -3 14 16 -8 32 -36 55 -86 55 -117 0 -13 -17 -48 -38 -79 -20 -31 -42
-64 -47 -74 -10 -17 -12 -17 -44 0 l-34 17 7 -26 c9 -37 -21 -50 -103 -43 -36
3 -76 9 -88 13 -31 9 -30 -10 2 -41 27 -28 50 -33 41 -10 -7 20 4 19 144 -5
142 -25 166 -25 127 -4 -34 18 -32 47 2 52 18 3 37 -10 77 -49 80 -79 65 -38
-17 46 l-71 74 38 46 c53 65 79 76 149 65 58 -9 123 -31 205 -69 36 -16 65
-21 145 -21 58 0 126 -7 160 -16 33 -8 89 -17 125 -20 l65 -5 -120 41 c-74 25
-155 44 -210 51 -49 5 -106 15 -125 21 -66 20 -185 90 -235 138 -52 50 -182
121 -290 158 -90 30 -227 44 -465 45 l-215 1 -89 -32 c-49 -18 -91 -30 -93
-28 -8 8 75 68 132 96 63 31 162 60 205 60 14 0 31 4 39 9 11 7 3 12 -30 21
-82 23 -273 0 -350 -41 l-22 -11 22 30 c50 71 206 157 348 193 62 15 106 20
173 17 76 -2 88 -1 73 10 -67 49 -281 62 -420 25 -40 -11 -73 -17 -73 -13 0
20 65 103 120 152 55 51 226 148 259 148 6 0 -19 -36 -54 -80 -36 -44 -65 -82
-65 -84 0 -3 35 9 78 26 122 47 358 126 458 153 125 35 334 66 334 51z m-1107
-228 c-70 -77 -125 -166 -138 -226 l-7 -33 38 26 c36 24 171 71 180 62 3 -3
-10 -10 -28 -16 -52 -18 -156 -91 -188 -131 -35 -44 -55 -89 -63 -144 -6 -35
-5 -37 11 -23 26 23 127 77 143 77 8 0 -6 -12 -31 -26 -25 -14 -61 -41 -81
-61 l-37 -35 -84 84 c-85 83 -138 166 -138 216 0 32 66 126 133 190 31 28 58
52 61 52 3 0 -6 -23 -19 -51 -26 -56 -24 -89 3 -67 13 11 271 147 281 148 2 0
-14 -19 -36 -42z m-442 -330 c32 -54 81 -119 120 -157 62 -63 90 -81 204 -131
28 -12 66 -29 85 -38 75 -34 220 -210 220 -268 0 -23 48 -94 89 -130 38 -35
141 -83 205 -96 75 -15 61 -32 -20 -25 -45 4 -93 20 -171 55 -128 58 -238 97
-325 112 -39 7 -73 21 -91 36 -29 24 -119 74 -133 74 -4 0 10 -16 32 -36 34
-31 36 -35 14 -29 -44 11 -195 33 -199 29 -2 -2 7 -7 20 -12 13 -5 31 -12 39
-15 28 -10 -108 -7 -185 4 -64 10 -94 9 -183 -6 l-107 -17 -85 26 c-197 60
-202 61 -282 48 -40 -7 -93 -23 -118 -35 -49 -24 -90 -76 -90 -114 0 -13 -11
-56 -25 -95 -14 -39 -25 -85 -25 -102 -1 -51 -16 -10 -31 82 -24 151 19 304
130 464 131 189 398 352 719 438 59 16 114 29 123 29 10 1 36 -34 70 -91z
m1129 -272 c60 -10 66 -14 82 -46 40 -80 2 -187 -81 -230 -47 -23 -126 -27
-174 -6 -107 44 -142 190 -62 264 32 30 39 32 102 31 38 -1 97 -6 133 -13z
m-1651 -367 c36 -12 72 -24 80 -26 8 -2 12 -5 10 -7 -2 -2 -58 3 -124 10 -167
21 -244 11 -318 -39 -16 -11 -31 -16 -34 -13 -10 10 31 60 61 74 74 37 217 37
325 1z m-2 -50 c63 -9 98 -10 150 -1 37 6 178 14 312 17 193 4 256 2 300 -10
31 -8 87 -17 125 -20 115 -11 253 -51 381 -113 114 -54 124 -57 200 -58 l80 0
0 -30 c0 -45 -52 -59 -177 -45 -126 14 -170 30 -307 109 l-114 65 -111 7 c-61
4 -131 13 -156 20 -41 11 -56 9 -166 -19 -107 -27 -128 -29 -180 -21 -32 6
-115 10 -184 10 -138 1 -366 15 -393 26 -23 8 -14 20 36 46 52 26 88 37 107
33 8 -2 52 -9 97 -16z m953 -164 c80 -24 82 -34 4 -18 -37 8 -91 13 -120 11
l-53 -3 102 -74 c58 -42 91 -71 77 -68 -92 21 -90 23 -31 -33 89 -85 197 -151
336 -207 l60 -24 -50 5 c-27 3 -64 8 -82 12 l-31 6 45 -48 c25 -27 61 -74 81
-104 35 -56 75 -140 69 -146 -2 -2 -19 17 -38 44 -64 89 -205 247 -310 346
-105 99 -289 243 -366 287 -24 13 -43 28 -43 33 0 15 289 0 350 -19z m-70
-1733 c-66 -122 -120 -224 -120 -227 0 -7 50 19 137 71 39 24 74 44 77 44 4 0
-6 -19 -20 -42 -80 -128 -273 -350 -259 -298 14 47 17 193 6 230 -17 56 -29
62 -81 39 -64 -29 -141 -91 -201 -164 -30 -35 -55 -62 -57 -60 -8 7 100 200
160 286 73 104 197 253 205 246 7 -8 11 -38 12 -97 l1 -55 127 127 c70 70 128
126 130 124 2 -1 -51 -102 -117 -224z"/>
<path d="M2650 2985 c8 -10 41 -35 72 -55 59 -39 63 -50 19 -51 l-26 0 25 -11
c80 -35 149 -71 264 -136 208 -118 340 -173 446 -186 40 -5 42 -5 20 6 -14 6
-76 35 -138 64 -105 49 -244 133 -257 155 -14 22 190 -73 270 -125 35 -23 33
-20 -18 29 -32 30 -82 71 -110 90 -28 19 -47 35 -41 35 19 0 243 -138 325
-199 43 -33 79 -58 79 -55 0 3 -6 17 -14 32 -18 34 -74 81 -196 162 -52 35
-89 65 -83 67 7 3 38 -1 69 -6 75 -14 95 -14 71 0 -51 30 -144 50 -291 64
-187 18 -301 44 -406 94 -41 19 -79 37 -85 40 -5 2 -3 -4 5 -14z"/>
<path d="M813 3483 c-30 -11 -9 -43 65 -100 103 -80 142 -103 175 -103 39 0
34 22 -15 71 -40 39 -147 99 -176 99 -7 0 -10 5 -7 10 3 6 15 10 26 10 10 0
19 5 19 10 0 10 -65 13 -87 3z"/>
<path d="M2122 3235 c-74 -32 -61 -143 18 -160 97 -21 145 117 55 159 -39 19
-32 19 -73 1z"/>
</g>
</svg>
